<svg width="20" height="20" viewBox="0 0 20 20" fill="none" xmlns="http://www.w3.org/2000/svg">
<g id="pen-tool-2">
<path id="Vector" d="M17.184 8.96059C17.008 5.84059 14.696 3.24059 11.608 2.71259C11.56 2.09659 11.048 1.60059 10.416 1.60059H9.61598C8.98398 1.60059 8.47998 2.08859 8.42398 2.70459C5.31998 3.21659 2.99198 5.82459 2.81598 8.96059C2.24798 9.05659 1.81598 9.54459 1.81598 10.1366V10.9366C1.81598 11.6006 2.35198 12.1366 3.01598 12.1366H3.81598C4.47998 12.1366 5.01598 11.6006 5.01598 10.9366V10.1366C5.01598 9.54459 4.58398 9.05659 4.01598 8.96059C4.18398 6.46459 6.01598 4.39259 8.46398 3.91259C8.59998 4.42459 9.06398 4.80059 9.61598 4.80059H10.416C10.968 4.80059 11.424 4.42459 11.568 3.92059C14 4.40859 15.816 6.48059 15.984 8.96059C15.416 9.05659 14.984 9.54459 14.984 10.1366V10.9366C14.984 11.6006 15.52 12.1366 16.184 12.1366H16.984C17.648 12.1366 18.184 11.6006 18.184 10.9366V10.1366C18.184 9.54459 17.752 9.04859 17.184 8.96059Z" fill="black"/>
<g id="Group">
<path id="Vector_2" d="M13.016 13.6402L11.704 14.8002H8.30399L6.99199 13.6402C6.23199 13.0162 6.23199 12.5362 6.80799 11.8002L9.11999 8.87216C9.27999 8.67216 9.46399 8.53616 9.67199 8.46416C9.88799 8.39216 10.12 8.39216 10.344 8.46416C10.544 8.53616 10.728 8.67216 10.896 8.87216L13.2 11.7922C13.784 12.5282 13.752 12.9842 13.016 13.6402Z" fill="black"/>
<path id="Vector_3" d="M11.056 18.0005H8.98399C8.24799 18.0005 7.69599 17.4005 7.83999 16.7605L8.08799 15.6485C8.13599 15.4245 8.33599 15.2725 8.55999 15.2725H11.48C11.704 15.2725 11.896 15.4245 11.952 15.6485L12.2 16.7605C12.352 17.4405 11.84 18.0005 11.056 18.0005Z" fill="black"/>
</g>
</g>
</svg>
