<svg width="40" height="40" viewBox="0 0 40 40" fill="none" xmlns="http://www.w3.org/2000/svg">
<path d="M34.3757 4.375H5.62573C4.93433 4.375 4.37573 4.93359 4.37573 5.625V34.375C4.37573 35.0664 4.93433 35.625 5.62573 35.625H34.3757C35.0671 35.625 35.6257 35.0664 35.6257 34.375V5.625C35.6257 4.93359 35.0671 4.375 34.3757 4.375ZM30.7664 13.4961H28.2703C26.3132 13.4961 25.9343 14.4258 25.9343 15.793V18.8047H30.6062L29.9968 23.5195H25.9343V35.625H21.0632V23.5234H16.989V18.8047H21.0632V15.3281C21.0632 11.293 23.5281 9.09375 27.1296 9.09375C28.8562 9.09375 30.3367 9.22266 30.7703 9.28125V13.4961H30.7664Z" fill="white"/>
</svg>
