<svg width="40" height="40" viewBox="0 0 40 40" fill="none" xmlns="http://www.w3.org/2000/svg">
<path d="M34.3769 4.375H5.62695C4.93555 4.375 4.37695 4.93359 4.37695 5.625V34.375C4.37695 35.0664 4.93555 35.625 5.62695 35.625H34.3769C35.0684 35.625 35.6269 35.0664 35.6269 34.375V5.625C35.6269 4.93359 35.0684 4.375 34.3769 4.375ZM13.6465 31.0039H9.00977V16.0898H13.6465V31.0039ZM11.3301 14.0508C10.7985 14.0508 10.2789 13.8932 9.83698 13.5979C9.39503 13.3025 9.05056 12.8828 8.84715 12.3917C8.64374 11.9007 8.59052 11.3603 8.69422 10.839C8.79791 10.3177 9.05387 9.83879 9.42973 9.46293C9.80558 9.08708 10.2844 8.83112 10.8058 8.72742C11.3271 8.62372 11.8675 8.67694 12.3585 8.88035C12.8496 9.08377 13.2693 9.42823 13.5647 9.87019C13.86 10.3121 14.0176 10.8317 14.0176 11.3633C14.0137 12.8477 12.8105 14.0508 11.3301 14.0508ZM31.0059 31.0039H26.373V23.75C26.373 22.0195 26.3418 19.7969 23.9629 19.7969C21.5527 19.7969 21.1816 21.6797 21.1816 23.625V31.0039H16.5527V16.0898H20.998V18.1289H21.0605C21.6777 16.957 23.1895 15.7188 25.4473 15.7188C30.1426 15.7188 31.0059 18.8086 31.0059 22.8242V31.0039Z" fill="white"/>
</svg>
