<svg width="40" height="40" viewBox="0 0 40 40" fill="none" xmlns="http://www.w3.org/2000/svg">
<path d="M27.0667 3.33337H12.9334C8.33341 3.33337 6.66675 5.00004 6.66675 9.68337V30.3167C6.66675 35 8.33341 36.6667 12.9334 36.6667H27.0501C31.6667 36.6667 33.3334 35 33.3334 30.3167V9.68337C33.3334 5.00004 31.6667 3.33337 27.0667 3.33337ZM20.0001 32.1667C18.4001 32.1667 17.0834 30.85 17.0834 29.25C17.0834 27.65 18.4001 26.3334 20.0001 26.3334C21.6001 26.3334 22.9167 27.65 22.9167 29.25C22.9167 30.85 21.6001 32.1667 20.0001 32.1667ZM23.3334 10.4167H16.6667C15.9834 10.4167 15.4167 9.85004 15.4167 9.16671C15.4167 8.48337 15.9834 7.91671 16.6667 7.91671H23.3334C24.0167 7.91671 24.5834 8.48337 24.5834 9.16671C24.5834 9.85004 24.0167 10.4167 23.3334 10.4167Z" fill="white"/>
</svg>
