<svg width="40" height="40" viewBox="0 0 40 40" fill="none" xmlns="http://www.w3.org/2000/svg">
<path d="M34.3666 14.0833C32.6166 6.38329 25.8999 2.91663 19.9999 2.91663C19.9999 2.91663 19.9999 2.91663 19.9832 2.91663C14.0999 2.91663 7.36658 6.36663 5.61658 14.0666C3.66658 22.6666 8.93325 29.95 13.6999 34.5333C15.4666 36.2333 17.7332 37.0833 19.9999 37.0833C22.2666 37.0833 24.5332 36.2333 26.2832 34.5333C31.0499 29.95 36.3166 22.6833 34.3666 14.0833ZM19.9999 22.4333C17.0999 22.4333 14.7499 20.0833 14.7499 17.1833C14.7499 14.2833 17.0999 11.9333 19.9999 11.9333C22.8999 11.9333 25.2499 14.2833 25.2499 17.1833C25.2499 20.0833 22.8999 22.4333 19.9999 22.4333Z" fill="white"/>
</svg>
