<svg width="20" height="20" viewBox="0 0 20 20" fill="none" xmlns="http://www.w3.org/2000/svg">
<path d="M14.424 6.616C14.368 6.608 14.312 6.608 14.256 6.616C13.016 6.576 12.032 5.56 12.032 4.312C12.032 3.04 13.064 2 14.344 2C15.616 2 16.656 3.032 16.656 4.312C16.648 5.56 15.664 6.576 14.424 6.616Z" fill="black"/>
<path d="M17.032 12.1603C16.136 12.7603 14.88 12.9843 13.72 12.8323C14.024 12.1763 14.184 11.4483 14.192 10.6803C14.192 9.88032 14.016 9.12032 13.68 8.45632C14.864 8.29632 16.12 8.52032 17.024 9.12032C18.288 9.95232 18.288 11.3203 17.032 12.1603Z" fill="black"/>
<path d="M5.552 6.616C5.608 6.608 5.664 6.608 5.72 6.616C6.96 6.576 7.944 5.56 7.944 4.312C7.944 3.032 6.912 2 5.632 2C4.36 2 3.328 3.032 3.328 4.312C3.328 5.56 4.312 6.576 5.552 6.616Z" fill="black"/>
<path d="M5.64 10.6805C5.64 11.4565 5.808 12.1925 6.112 12.8565C4.984 12.9765 3.808 12.7365 2.944 12.1685C1.68 11.3285 1.68 9.96047 2.944 9.12047C3.8 8.54447 5.008 8.31247 6.144 8.44047C5.816 9.11247 5.64 9.87247 5.64 10.6805Z" fill="black"/>
<path d="M10.096 13.0966C10.032 13.0886 9.95999 13.0886 9.88799 13.0966C8.41599 13.0486 7.23999 11.8406 7.23999 10.3526C7.24799 8.83259 8.47199 7.60059 9.99999 7.60059C11.52 7.60059 12.752 8.83259 12.752 10.3526C12.744 11.8406 11.576 13.0486 10.096 13.0966Z" fill="black"/>
<path d="M7.496 14.7525C6.288 15.5605 6.288 16.8885 7.496 17.6885C8.872 18.6085 11.128 18.6085 12.504 17.6885C13.712 16.8805 13.712 15.5525 12.504 14.7525C11.136 13.8325 8.88 13.8325 7.496 14.7525Z" fill="black"/>
</svg>
