<svg width="20" height="20" viewBox="0 0 20 20" fill="none" xmlns="http://www.w3.org/2000/svg">
<path d="M13.8 3.24839V2.00039C13.8 1.67239 13.528 1.40039 13.2 1.40039C12.872 1.40039 12.6 1.67239 12.6 2.00039V3.20039H7.39999V2.00039C7.39999 1.67239 7.12799 1.40039 6.79999 1.40039C6.47199 1.40039 6.19999 1.67239 6.19999 2.00039V3.24839C4.03999 3.44839 2.99199 4.73639 2.83199 6.64839C2.81599 6.88039 3.00799 7.07239 3.23199 7.07239H16.768C17 7.07239 17.192 6.87239 17.168 6.64839C17.008 4.73639 15.96 3.44839 13.8 3.24839Z" fill="black"/>
<path d="M15.6 12.4004C13.832 12.4004 12.4 13.8324 12.4 15.6004C12.4 16.2004 12.568 16.7684 12.864 17.2484C13.416 18.1764 14.432 18.8004 15.6 18.8004C16.768 18.8004 17.784 18.1764 18.336 17.2484C18.632 16.7684 18.8 16.2004 18.8 15.6004C18.8 13.8324 17.368 12.4004 15.6 12.4004ZM17.256 15.2564L15.552 16.8324C15.44 16.9364 15.288 16.9924 15.144 16.9924C14.992 16.9924 14.84 16.9364 14.72 16.8164L13.928 16.0244C13.696 15.7924 13.696 15.4084 13.928 15.1764C14.16 14.9444 14.544 14.9444 14.776 15.1764L15.16 15.5604L16.44 14.3764C16.68 14.1524 17.064 14.1684 17.288 14.4084C17.512 14.6484 17.496 15.0244 17.256 15.2564Z" fill="black"/>
<path d="M16.4 8.27246H3.59999C3.15999 8.27246 2.79999 8.63246 2.79999 9.07246V14.0005C2.79999 16.4005 3.99999 18.0005 6.79999 18.0005H10.744C11.296 18.0005 11.68 17.4645 11.504 16.9445C11.344 16.4805 11.208 15.9685 11.208 15.6005C11.208 13.1765 13.184 11.2005 15.608 11.2005C15.84 11.2005 16.072 11.2165 16.296 11.2565C16.776 11.3285 17.208 10.9525 17.208 10.4725V9.08046C17.2 8.63246 16.84 8.27246 16.4 8.27246ZM7.76799 14.9685C7.61599 15.1125 7.40799 15.2005 7.19999 15.2005C6.99199 15.2005 6.78399 15.1125 6.63199 14.9685C6.48799 14.8165 6.39999 14.6085 6.39999 14.4005C6.39999 14.1925 6.48799 13.9845 6.63199 13.8325C6.71199 13.7605 6.79199 13.7045 6.89599 13.6645C7.19199 13.5365 7.54399 13.6085 7.76799 13.8325C7.91199 13.9845 7.99999 14.1925 7.99999 14.4005C7.99999 14.6085 7.91199 14.8165 7.76799 14.9685ZM7.76799 12.1685C7.72799 12.2005 7.68799 12.2325 7.64799 12.2645C7.59999 12.2965 7.55199 12.3205 7.50399 12.3365C7.45599 12.3605 7.40799 12.3765 7.35999 12.3845C7.30399 12.3925 7.24799 12.4005 7.19999 12.4005C6.99199 12.4005 6.78399 12.3125 6.63199 12.1685C6.48799 12.0165 6.39999 11.8085 6.39999 11.6005C6.39999 11.3925 6.48799 11.1845 6.63199 11.0325C6.81599 10.8485 7.09599 10.7605 7.35999 10.8165C7.40799 10.8245 7.45599 10.8405 7.50399 10.8645C7.55199 10.8805 7.59999 10.9045 7.64799 10.9365C7.68799 10.9685 7.72799 11.0005 7.76799 11.0325C7.91199 11.1845 7.99999 11.3925 7.99999 11.6005C7.99999 11.8085 7.91199 12.0165 7.76799 12.1685ZM10.568 12.1685C10.416 12.3125 10.208 12.4005 9.99999 12.4005C9.79199 12.4005 9.58399 12.3125 9.43199 12.1685C9.28799 12.0165 9.19999 11.8085 9.19999 11.6005C9.19999 11.3925 9.28799 11.1845 9.43199 11.0325C9.73599 10.7365 10.272 10.7365 10.568 11.0325C10.712 11.1845 10.8 11.3925 10.8 11.6005C10.8 11.8085 10.712 12.0165 10.568 12.1685Z" fill="black"/>
</svg>
