<svg width="40" height="40" viewBox="0 0 40 40" fill="none" xmlns="http://www.w3.org/2000/svg">
<path d="M36.2507 9.93361C35.0554 10.4492 33.7546 10.8203 32.4148 10.9649C33.8059 10.1384 34.8476 8.83283 35.3445 7.29298C34.0391 8.0695 32.6091 8.61401 31.1179 8.90236C30.4947 8.23606 29.7409 7.70525 28.9035 7.34301C28.0661 6.98078 27.1631 6.79488 26.2507 6.79689C22.5593 6.79689 19.5906 9.78908 19.5906 13.461C19.5906 13.9766 19.6531 14.4922 19.7546 14.9883C14.2273 14.6992 9.29761 12.0586 6.02026 8.01564C5.4231 9.03562 5.11016 10.197 5.11401 11.3789C5.11401 13.6914 6.28979 15.7305 8.08276 16.9297C7.02614 16.8881 5.99426 16.5977 5.07104 16.082V16.1641C5.07104 19.4024 7.36011 22.086 10.4109 22.7031C9.83807 22.8519 9.24881 22.928 8.65698 22.9297C8.22339 22.9297 7.81323 22.8867 7.39917 22.8281C8.24292 25.4688 10.7 27.3867 13.6257 27.4492C11.3367 29.2422 8.46948 30.2969 5.3562 30.2969C4.79761 30.2969 4.28198 30.2774 3.74683 30.2149C6.69995 32.1094 10.2039 33.2031 13.9773 33.2031C26.2273 33.2031 32.9304 23.0547 32.9304 14.2461C32.9304 13.957 32.9304 13.668 32.9109 13.3789C34.2078 12.4297 35.3445 11.2539 36.2507 9.93361Z" fill="white"/>
</svg>
