<svg width="53" height="64" viewBox="0 0 53 64" fill="none" xmlns="http://www.w3.org/2000/svg">
<path d="M2.32985 7.4963C1.84531 13.8761 7.78096 17.0189 10.8094 17.7928C8.95194 17.1468 7.14163 13.9569 6.46865 12.4427C8.92501 13.9232 15.5538 16.8641 22.4182 16.7834C29.2825 16.7026 32.2773 19.9127 32.9166 21.5278L20.803 22.6383L27.1627 23.2439L29.9892 25.2629L36.1469 24.0515C47.1299 24.4553 50.8178 32.6992 51.2888 36.7707L46.2415 34.9537C37.3582 32.3695 26.6579 36.5016 22.4182 38.8906L26.6579 34.9537C10.5065 38.7493 2.2289 49.7928 0.109032 54.8401C-0.779296 61.7853 3.97864 63.7907 6.46865 63.9253H32.3109C35.0567 63.9253 36.0123 62.2429 36.1469 61.4017L37.5601 55.7487C39.0138 51.2263 35.8777 50.7013 34.128 51.0042C30.6285 50.9369 22.5999 50.8427 18.4813 51.0042C14.3627 51.1657 13.1984 49.4563 13.1311 48.5815C12.9696 44.5436 16.6306 42.8612 18.4813 42.5247L17.8756 45.1493C24.9015 37.6389 33.455 36.0305 36.8535 36.1651C36.8535 36.1651 49.9092 36.5352 52.904 38.184C51.5311 26.0704 41.6316 22.0326 36.8535 21.5278C33.381 17.167 26.5906 15.7403 23.6295 15.572C22.0144 13.7954 23.8314 13.3512 24.9418 13.3512H40.1847C42.6882 13.3512 43.3814 12.409 43.415 11.9379L46.8472 2.54993C48.3008 0.207972 46.6453 -0.108325 45.6358 0.0262709H7.57906C6.03122 -0.141973 2.8144 1.11649 2.32985 7.4963Z" fill="white"/>
</svg>
