<svg width="69" height="40" viewBox="0 0 69 40" fill="none" xmlns="http://www.w3.org/2000/svg">
<path d="M24.4003 39.8363L27.0078 28.8974H22.8391L23.3943 26.4206H34.6081L34.0618 28.8974H30.4207L27.8132 39.8363H24.4003Z" fill="white"/>
<path d="M32.2407 39.8363L35.3945 26.4206H44.4486L43.7726 28.8798H38.373L37.6937 31.8062H42.9804L42.4429 34.1509H37.1651L36.4415 37.377H42.1005L41.2948 39.8363H32.2407Z" fill="white"/>
<path d="M52.3817 39.6386C52.2103 39.6797 51.971 39.7209 51.6637 39.762C51.3623 39.8031 51.0343 39.8413 50.6797 39.8766C50.331 39.9118 49.9764 39.9412 49.6159 39.9647C49.2613 39.9882 48.9422 40 48.6585 40C47.8489 40 47.1279 39.9207 46.4956 39.762C45.8632 39.6033 45.3284 39.3477 44.8911 38.9951C44.4537 38.6426 44.1198 38.1842 43.8894 37.6201C43.6589 37.0501 43.5436 36.3566 43.5436 35.5398C43.5436 35.2225 43.5584 34.8905 43.588 34.5438C43.6175 34.1971 43.6677 33.8298 43.7387 33.442L44.0312 31.9082C44.2558 30.7036 44.5719 29.7193 44.9797 28.9554C45.3934 28.1856 45.8957 27.5832 46.4867 27.1484C47.0777 26.7077 47.7603 26.405 48.5344 26.2405C49.3145 26.076 50.1862 25.9937 51.1495 25.9937C51.4332 25.9937 51.7494 26.0054 52.098 26.0289C52.4467 26.0524 52.7895 26.0818 53.1263 26.1171C53.4691 26.1523 53.7823 26.1935 54.066 26.2405C54.3556 26.2816 54.8395 26.4546 54.9991 26.5017L54.4527 28.7703C54.2282 28.7526 53.8532 28.735 53.5873 28.7174C53.3214 28.6997 53.0436 28.6821 52.754 28.6645C52.4703 28.6469 52.1808 28.6351 51.8853 28.6292C51.5957 28.6175 51.312 28.6116 51.0343 28.6116C50.5319 28.6116 50.0858 28.6616 49.6957 28.7614C49.3116 28.8613 48.9718 29.0465 48.6763 29.3168C48.3867 29.5812 48.1385 29.9485 47.9316 30.4186C47.7307 30.8828 47.5623 31.4822 47.4264 32.2168L47.1338 33.7505C47.0275 34.3499 46.9743 34.8494 46.9743 35.249C46.9743 35.6721 47.0275 36.0217 47.1338 36.2979C47.2402 36.5682 47.3968 36.7827 47.6037 36.9413C47.8164 37.1 48.0764 37.2117 48.3837 37.2763C48.697 37.3351 49.0545 37.3644 49.4564 37.3644C49.7341 37.3644 50.0207 37.3615 50.3162 37.3556C50.6117 37.3439 50.9043 37.3321 51.1938 37.3204C51.4834 37.3086 51.7641 37.2939 52.036 37.2763C52.3078 37.2528 52.8154 37.2322 53.04 37.2146L52.3817 39.6386Z" fill="white"/>
<path d="M61.8527 39.8363L62.9841 34.1862H57.7838L56.4019 39.8363H53.2484L56.1428 26.4206H59.2964L58.2182 31.6211H63.5481L64.8768 26.4206H68.0126L64.9885 39.8363H61.8527Z" fill="white"/>
<path d="M1.45616 4.68519C1.15332 8.67257 4.8631 10.6368 6.75584 11.1205C5.59496 10.7167 4.46352 8.72304 4.04291 7.77667C5.57813 8.70201 9.72114 10.5401 14.0114 10.4896C18.3016 10.4391 20.1733 12.4454 20.5729 13.4549L13.0019 14.1489L16.9767 14.5275L18.7432 15.7893L22.5918 15.0322C29.4562 15.2846 31.7611 20.437 32.0555 22.9817L28.901 21.8461C23.3489 20.2309 16.6612 22.8135 14.0114 24.3066L16.6612 21.8461C6.56657 24.2183 1.39307 31.1205 0.0681451 34.2751C-0.48706 38.6158 2.48665 39.8692 4.04291 39.9533H20.1943C21.9104 39.9533 22.5077 38.9018 22.5918 38.376L23.4751 34.8429C24.3836 32.0164 22.4236 31.6883 21.33 31.8776C19.1428 31.8356 14.1249 31.7767 11.5508 31.8776C8.97666 31.9786 8.24901 30.9102 8.20695 30.3634C8.106 27.8398 10.3941 26.7882 11.5508 26.5779L11.1722 28.2183C15.5634 23.5243 20.9094 22.519 23.0334 22.6032C23.0334 22.6032 31.1933 22.8345 33.065 23.865C32.2069 16.294 26.0198 13.7704 23.0334 13.4549C20.8631 10.7294 16.6191 9.83766 14.7685 9.73251C13.759 8.6221 14.8946 8.34449 15.5887 8.34449H25.1155C26.6801 8.34449 27.1134 7.75564 27.1344 7.46121L29.2795 1.5937C30.188 0.129982 29.1533 -0.0677032 28.5224 0.0164193H4.73692C3.76951 -0.0887332 1.759 0.697807 1.45616 4.68519Z" fill="white"/>
<path d="M7.26056 11.7514C2.46561 11.7514 0.509775 8.21831 0.131226 6.45175V10.3003C2.35205 12.2183 5.80946 12.0669 7.26056 11.7514Z" fill="white"/>
<path d="M10.1628 16.4202C4.71167 16.0164 1.20378 17.5138 0.131226 18.313V22.7924C0.131226 19.007 6.81892 16.967 10.1628 16.4202Z" fill="white"/>
</svg>
